# Blender 4.1.0
# www.blender.org
mtllib dice.mtl
o Cube
v 0.273443 0.273443 -0.288000
v 0.273443 0.288000 -0.273443
v 0.288000 0.273443 -0.273443
v 0.273443 -0.288000 -0.273443
v 0.273443 -0.273443 -0.288000
v 0.288000 -0.273443 -0.273443
v 0.288000 0.273443 0.273443
v 0.273443 0.288000 0.273443
v 0.273443 0.273443 0.288000
v 0.288000 -0.273443 0.273443
v 0.273443 -0.273443 0.288000
v 0.273443 -0.288000 0.273443
v -0.273443 0.273443 -0.288000
v -0.288000 0.273443 -0.273443
v -0.273443 0.288000 -0.273443
v -0.288000 -0.273443 -0.273443
v -0.273443 -0.273443 -0.288000
v -0.273443 -0.288000 -0.273443
v -0.288000 0.273443 0.273443
v -0.273443 0.273443 0.288000
v -0.273443 0.288000 0.273443
v -0.273443 -0.288000 0.273443
v -0.273443 -0.273443 0.288000
v -0.288000 -0.273443 0.273443
vn -0.0000 -1.0000 -0.0000
vn -1.0000 -0.0000 -0.0000
vn -0.0000 -0.0000 1.0000
vn -0.0000 1.0000 -0.0000
vn 1.0000 -0.0000 -0.0000
vn 0.5774 0.5774 -0.5774
vn 0.5774 -0.5774 -0.5774
vn 0.5774 0.5774 0.5774
vn 0.5774 -0.5774 0.5774
vn -0.5774 0.5774 -0.5774
vn -0.5774 -0.5774 -0.5774
vn -0.5774 0.5774 0.5774
vn -0.5774 -0.5774 0.5774
vn -0.7071 -0.7071 -0.0000
vn -0.0000 -0.7071 -0.7071
vn 0.7071 -0.0000 -0.7071
vn -0.7071 -0.0000 0.7071
vn 0.7071 -0.0000 0.7071
vn -0.7071 -0.0000 -0.7071
vn -0.0000 0.7071 0.7071
vn 0.7071 0.7071 -0.0000
vn -0.0000 -0.7071 0.7071
vn -0.7071 0.7071 -0.0000
vn -0.0000 0.7071 -0.7071
vn 0.7071 -0.7071 -0.0000
vn -0.0000 -0.0000 -1.0000
vt 0.720833 0.181250
vt 0.679167 0.181250
vt 0.679167 0.118750
vt 0.720833 0.118750
vt 0.079167 0.181250
vt 0.079167 0.118750
vt 0.120833 0.118750
vt 0.120833 0.181250
vt 0.587500 0.118750
vt 0.587500 0.181250
vt 0.545833 0.181250
vt 0.545833 0.118750
vt 0.054167 0.181250
vt 0.012500 0.181250
vt 0.012500 0.118750
vt 0.054167 0.118750
vt 0.612500 0.118750
vt 0.654167 0.118750
vt 0.654167 0.181250
vt 0.612500 0.181250
vt 0.054167 0.062500
vt 0.054167 0.065625
vt 0.056250 0.062500
vt 0.056250 0.065625
vt 0.054167 0.075000
vt 0.056250 0.071875
vt 0.056250 0.078125
vt 0.056250 0.059375
vt 0.054167 0.059375
vt 0.054167 0.081250
vt 0.054167 0.018750
vt 0.056250 0.018750
vt 0.056250 0.081250
vt 0.145833 0.181250
vt 0.145833 0.118750
vt 0.187500 0.118750
vt 0.187500 0.181250
s 0
usemtl Material
f 18/1/1 4/2/1 12/3/1 22/4/1
f 24/5/2 19/6/2 14/7/2 16/8/2
f 11/9/3 9/10/3 20/11/3 23/12/3
f 2/13/4 15/14/4 21/15/4 8/16/4
f 6/17/5 3/18/5 7/19/5 10/20/5
f 1/21/6 2/21/6 3/21/6
f 4/22/7 5/21/7 6/22/7
f 7/23/8 8/23/8 9/23/8
f 10/24/9 11/23/9 12/24/9
f 13/21/10 14/21/10 15/21/10
f 16/25/11 17/26/11 18/27/11
f 19/23/12 20/23/12 21/23/12
f 22/28/13 23/23/13 24/28/13
f 18/29/14 22/28/14 24/28/14 16/29/14
f 4/22/15 18/29/15 17/21/15 5/21/15
f 3/21/16 6/22/16 5/21/16 1/21/16
f 23/23/17 20/23/17 19/23/17 24/28/17
f 9/23/18 11/23/18 10/24/18 7/23/18
f 13/30/19 17/31/19 16/32/19 14/33/19
f 8/23/20 21/23/20 20/23/20 9/23/20
f 2/21/21 8/23/21 7/23/21 3/21/21
f 22/28/22 12/24/22 11/23/22 23/23/22
f 21/23/23 15/21/23 14/21/23 19/23/23
f 15/21/24 2/21/24 1/21/24 13/21/24
f 12/24/25 4/22/25 6/22/25 10/24/25
f 17/34/26 13/35/26 1/36/26 5/37/26
